PathFileType	3	(X/Y/Z)	D:\minhoCalibration\240510\subject4_KPNP\preferred\preferred15.trc
DataRate	CameraRate	NumFrames	NumMarkers	Units	OrigDataRate	OrigDataStartFrame	OrigNumFrames
200.0	200.0	37	10	mm	200.0	444	86	
Frame#	Time	Left_Ankle_Outer1			Left_Ankle_Inner1			Left_Knee_Outer1			Left_Knee_Inner1			Left_Wrist1			Right_Wrist1			Right_Knee_Inner1			Right_Knee_Outer1			Right_Ankle_Inner1			Right_Ankle_Outer1			
		X1	Y1	Z1	X2	Y2	Z2	X3	Y3	Z3	X4	Y4	Z4	X5	Y5	Z5	X6	Y6	Z6	X7	Y7	Z7	X8	Y8	Z8	X9	Y9	Z9	X10	Y10	Z10	
444	2.21	-655.94189	308.67972	1685.0327	-592.27264	261.5079	1618.4191	-832.3017	524.33142	1253.8121	-740.526	480.23633	1210.1099	-705.18195	973.42651	1286.3351	-358.82025	895.68805	1331.785	-457.88763	499.49066	1090.1959	-371.60217	497.71091	1160.0773	-616.37646	61.418449	1240.0548	-571.19354	70.046265	1274.9612
445	2.215	-653.97284	321.10306	1661.8782	-591.6944	272.33148	1595.9614	-831.28937	532.06055	1229.891	-737.56433	488.65884	1187.5011	-702.05951	980.39868	1275.6433	-358.83679	897.31482	1333.4865	-453.38748	499.84738	1091.9513	-370.173	498.12366	1164.6447	-615.68341	62.212833	1240.2703	-570.88721	69.971725	1275.4694
446	2.22	-652.68036	333.25986	1638.7633	-590.09546	283.30954	1572.7953	-829.84424	540.72528	1205.7812	-734.55786	497.88983	1165.207	-698.15009	987.38068	1265.3289	-359.0162	899.71747	1334.9156	-449.32907	500.07861	1093.7432	-368.89175	498.46524	1169.2986	-615.00427	63.057354	1240.449	-570.59949	71.270027	1276.2971
447	2.225	-651.84888	345.3255	1615.7074	-589.1524	294.70801	1550.38	-827.58508	549.94202	1181.5737	-731.85742	508.77206	1142.6638	-694.07007	994.81665	1255.2239	-358.5087	902.20538	1336.3654	-446.09567	500.78369	1096.0627	-368.3212	499.22244	1174.0212	-614.37158	63.999825	1240.6698	-570.04938	72.113426	1276.8939
448	2.23	-651.52887	357.31952	1592.6742	-588.16711	307.09903	1528.1445	-824.49585	559.70776	1157.4226	-725.99463	518.80792	1118.9059	-689.57184	1002.2446	1244.9939	-358.46869	904.54395	1337.9946	-443.36642	501.29761	1098.2817	-367.96976	500.08481	1178.6321	-613.70563	65.015839	1240.7892	-568.92212	71.79541	1276.8058
449	2.235	-651.97632	369.39188	1569.7061	-587.09961	319.31702	1505.7662	-821.05103	570.43549	1132.9227	-721.53412	530.58795	1096.1063	-684.93256	1010.021	1235.0099	-358.45187	907.1214	1339.8464	-441.31439	502.53476	1100.7598	-367.92896	501.3244	1183.1808	-613.05609	66.159752	1240.9402	-568.04388	73.208374	1276.7002
450	2.24	-652.88092	381.54605	1546.7084	-587.51959	331.16122	1484.4529	-816.39301	581.59375	1108.5679	-716.03467	543.72223	1073.4895	-679.70868	1017.7654	1225.2113	-359.87537	909.55658	1341.9445	-439.52963	503.61694	1103.0343	-368.11575	502.87778	1187.347	-612.28754	67.401924	1240.9419	-568.6936	74.20153	1277.4985
451	2.245	-654.43054	393.97354	1523.866	-587.50586	344.1781	1462.6776	-811.27594	593.75134	1083.8695	-708.68146	556.12872	1049.9996	-673.52332	1024.9927	1215.9189	-359.22086	912.49048	1343.8748	-438.30667	504.91895	1105.4785	-368.23364	504.71014	1191.2751	-611.56519	68.856491	1241.0251	-568.19073	75.404083	1277.7583
452	2.25	-656.64111	406.67538	1500.9734	-587.23236	357.24905	1441.5204	-805.05219	606.54388	1058.9242	-701.34515	570.03351	1027.4999	-667.65216	1032.9768	1206.6936	-360.22897	915.17157	1346.1466	-437.64832	506.71698	1108.0807	-368.44693	506.90228	1194.8043	-610.84277	70.18898	1240.9062	-568.40033	76.830101	1278.6991
453	2.255	-659.55579	419.74643	1478.1217	-589.68414	369.8222	1419.7742	-797.7442	619.94708	1033.8771	-692.54987	584.40009	1005.1462	-661.69873	1041.104	1197.7657	-360.14542	918.16937	1348.1498	-436.90936	508.12344	1110.283	-368.67468	509.19229	1197.9293	-609.50793	71.096565	1240.0016	-568.13373	78.024773	1278.9343
454	2.26	-663.32104	433.05179	1455.3636	-591.74921	382.85657	1398.7081	-789.04443	634.11542	1008.9249	-682.284	598.95886	983.86957	-655.51343	1049.4419	1189.2168	-361.48718	920.8667	1350.4535	-435.55661	509.77713	1111.7732	-368.81702	511.68906	1200.7004	-608.68555	72.785187	1239.8126	-567.29254	79.771477	1278.8571
455	2.265	-668.3952	446.89615	1432.5426	-594.8833	396.59467	1377.9723	-779.66962	649.25055	983.96765	-672.35541	614.67682	961.89349	-648.94531	1057.6033	1181.0831	-362.8923	923.49426	1352.8595	-435.37018	511.33264	1114.4789	-368.94366	514.28802	1203.3407	-608.2652	74.925888	1239.9685	-567.245	81.166061	1278.859
456	2.27	-674.14362	460.76382	1409.576	-598.64087	410.03	1357.5134	-768.98682	665.03308	959.49951	-660.90607	630.44104	940.25586	-642.09009	1065.6818	1173.3033	-364.80728	925.93427	1355.3809	-433.65109	513.61646	1115.1477	-368.80508	516.86017	1205.6893	-607.77148	76.7966	1239.3973	-566.69275	82.969574	1278.6241
457	2.275	-681.02863	474.95245	1386.5233	-603.71033	424.47528	1337.4567	-757.36865	681.72992	935.16321	-647.91376	646.97137	919.57825	-635.15692	1073.7986	1165.9967	-366.69968	928.30737	1357.8613	-432.1842	515.88116	1116.4054	-368.06537	519.336	1208.5718	-607.57324	78.682648	1238.5367	-567.05951	84.270714	1278.3219
458	2.28	-688.9671	489.5296	1363.4485	-609.89508	439.32358	1317.7899	-744.33917	699.13666	911.47382	-634.98541	663.92682	901.45593	-627.84973	1081.7933	1159.0911	-368.74979	930.49249	1360.6389	-430.37546	517.42853	1117.1078	-368.04587	521.69525	1210.4117	-606.57495	80.239136	1236.8026	-566.5155	86.309204	1277.3049
459	2.285	-697.3443	504.00681	1340.0332	-617.02704	454.39767	1298.0623	-729.65564	717.13226	888.37067	-620.8031	679.99445	882.53363	-620.81903	1089.9749	1152.7089	-371.43906	932.25732	1363.4037	-427.96881	519.32391	1117.3022	-367.66318	523.96381	1212.5844	-606.02209	82.229462	1235.2781	-566.84583	87.962791	1276.3335
460	2.29	-707.02234	519.40607	1316.4529	-624.45789	469.50848	1278.6522	-714.24097	735.90906	866.33826	-605.50378	697.56696	865.22571	-613.54047	1097.6881	1146.9915	-374.41092	933.82538	1366.2949	-426.24365	520.69073	1118.3173	-367.04739	526.04608	1214.6849	-607.01111	84.851669	1234.4691	-567.633	89.822533	1275.7208
461	2.295	-716.97455	535.2276	1292.2803	-633.55396	484.42657	1259.0436	-697.31171	754.94409	845.10107	-588.78784	714.84692	848.48431	-605.26831	1105.1344	1141.2377	-377.82602	934.96185	1369.2943	-422.74677	522.63293	1117.9528	-366.43259	527.92267	1216.7306	-606.25311	87.136879	1232.4135	-568.37323	91.837456	1274.4445
462	2.3	-727.43738	551.59772	1267.6134	-643.58459	499.54926	1238.6639	-679.15076	774.64624	825.15314	-571.82367	731.68732	833.38416	-597.88666	1112.6676	1136.4752	-381.74194	935.70483	1372.327	-419.26007	523.94183	1117.9713	-365.52493	529.55066	1218.8757	-607.60785	89.6577	1229.9697	-569.35779	93.970337	1272.9789
463	2.305	-738.32324	568.86005	1242.2506	-654.28979	514.86249	1217.9865	-658.83447	794.00732	806.85291	-553.96582	748.60944	819.84985	-589.02106	1120.3352	1130.8879	-386.10785	936.17542	1375.4176	-415.92676	525.05322	1118.1406	-364.82019	531.1402	1220.567	-607.77106	92.618515	1227.6627	-570.47229	96.283409	1271.3011
464	2.31	-749.58954	586.68353	1215.9691	-666.16504	530.51001	1196.6085	-638.10663	813.70587	789.95453	-534.49963	765.74768	807.84729	-581.43744	1127.5801	1127.1796	-391.77734	935.96478	1378.7494	-411.27048	526.32629	1118.1189	-363.90152	532.59991	1222.2595	-607.40509	94.967224	1224.9526	-571.65442	98.706337	1269.3019
465	2.315	-761.05695	605.26892	1188.8615	-678.7395	546.18677	1173.8344	-616.12207	833.81708	774.55768	-515.73322	781.6582	797.75916	-573.54474	1134.4917	1123.8042	-397.23932	936.03229	1381.2458	-407.18829	527.41815	1118.6514	-363.08136	534.00018	1223.5669	-607.55109	97.758766	1221.7758	-572.88043	101.31187	1266.9387
466	2.32	-772.84204	624.82886	1160.2871	-692.10504	562.26392	1149.7526	-592.78656	853.42035	761.24579	-496.96191	796.61908	789.13403	-565.54871	1141.0422	1120.8464	-404.33792	935.25659	1385.014	-401.53558	528.65552	1117.9087	-362.30093	535.49078	1224.7195	-607.54407	100.2234	1218.1061	-574.06329	104.02539	1264.2014
467	2.325	-784.18268	644.82812	1130.6108	-705.95929	578.7843	1124.0449	-569.4491	873.23602	749.39526	-477.4855	811.49713	782.51514	-557.91693	1147.108	1118.7205	-411.47656	934.42279	1387.3978	-396.16406	529.43701	1117.4303	-361.65384	536.99292	1225.6147	-607.92236	103.52534	1214.0781	-575.01337	106.82376	1261.2292
468	2.33	-795.35541	665.46216	1099.8075	-720.14935	595.67078	1096.6217	-545.65002	892.34821	740.03595	-459.1503	824.94232	776.90314	-549.65173	1153.1826	1116.2512	-419.81168	932.85425	1387.9008	-390.84497	530.78955	1117.2476	-361.14706	538.43292	1225.9714	-608.05286	106.391	1209.6482	-575.69916	109.65424	1258.092
469	2.335	-805.91827	687.0578	1067.1217	-734.69995	613.16272	1066.7837	-521.21497	910.00903	733.65424	-440.83746	837.44928	773.00232	-542.51605	1158.4492	1115.2025	-428.43542	931.10516	1389.2623	-385.63971	532.638	1117.2866	-360.63132	540.51801	1226.7838	-607.711	109.42744	1205.4919	-576.25476	112.48067	1254.6884
470	2.34	-815.67413	709.09875	1033.2686	-748.4718	631.87549	1034.6206	-496.43884	926.71881	728.76807	-423.38513	848.79431	770.36548	-534.75348	1163.2825	1113.9091	-437.79974	929.15369	1390.0131	-380.38849	533.77502	1117.0588	-360.33713	542.00061	1226.676	-607.22223	112.50243	1200.9442	-576.50024	115.3234	1250.9449
471	2.345	-824.13171	731.91443	996.84155	-762.07318	650.92987	1000.0383	-472.53455	942.46881	726.03644	-406.60815	859.10474	768.8974	-527.35425	1167.578	1113.2666	-447.52557	926.68024	1390.9753	-375.09341	535.31085	1116.8407	-360.0108	543.89404	1226.8849	-605.18268	115.00684	1197.1337	-576.61102	117.86038	1247.2377
472	2.35	-831.75616	755.75256	958.85284	-774.40094	671.25659	963.5462	-448.94446	957.02118	725.17548	-391.19867	868.67657	768.56958	-519.93121	1171.2742	1112.864	-457.88245	924.28876	1391.0514	-371.12814	536.7735	1117.2515	-359.8811	545.85815	1226.8062	-603.83282	117.19647	1192.5944	-576.37372	120.03969	1243.3466
473	2.355	-838.13177	780.38531	919.28253	-785.32764	692.68134	924.71619	-426.17517	969.84082	725.89197	-376.92828	877.05487	768.7077	-512.63989	1174.6476	1112.809	-468.51477	921.56702	1390.2284	-367.23465	538.31903	1117.3989	-359.89877	547.80035	1226.6648	-602.52448	119.00659	1188.4349	-576.08203	121.94333	1239.3833
474	2.36	-842.17499	805.48248	877.04694	-794.32672	715.07751	882.80237	-404.75003	981.13605	728.11761	-364.0636	884.4599	769.17737	-505.55856	1177.2423	1112.9745	-479.42523	918.7616	1388.822	-363.95892	540.13318	1117.4711	-360.2688	549.73193	1226.629	-601.19696	120.43709	1184.1161	-575.849	123.4863	1235.4341
475	2.365	-843.30212	831.27081	832.71552	-800.83649	738.61554	838.91431	-384.83514	990.8288	731.68488	-352.51077	890.85773	769.9715	-498.84058	1179.2761	1113.177	-490.39917	915.79578	1386.7772	-361.90387	541.98389	1117.7408	-361.32031	551.61023	1226.7787	-599.7226	121.69263	1179.688	-575.88623	124.95695	1231.6953
476	2.37	-842.0321	858.39868	786.55249	-803.88123	762.95215	793.04773	-366.45535	998.37048	736.06592	-342.46002	896.30029	770.87701	-492.53662	1180.7638	1113.5979	-501.29407	912.92651	1383.8689	-360.27261	543.32538	1117.619	-363.02206	553.38373	1227.2946	-599.21216	123.06282	1175.6699	-576.37744	126.30835	1228.0793
477	2.375	-836.80286	885.72321	738.99115	-804.26514	788.75513	746.15808	-350.24539	1004.3373	741.43414	-334.1394	900.88269	771.65314	-486.73441	1181.7498	1114.0845	-512.01648	910.22046	1380.3336	-358.99414	545.06897	1117.231	-365.55771	554.70349	1226.969	-598.54352	124.13983	1171.9343	-577.33868	127.43761	1224.5657
478	2.38	-827.37988	913.61072	690.19635	-800.53406	815.40216	695.76111	-336.25439	1008.698	747.21783	-327.95395	904.45776	772.21527	-481.35083	1182.6094	1114.6987	-522.30499	907.94922	1376.0873	-359.56409	546.37939	1117.4149	-368.66675	556.35266	1227.0502	-598.84998	125.06473	1168.2189	-578.66595	128.48601	1221.2168
479	2.385	-814.49225	941.91833	640.79688	-792.79279	842.28717	643.23663	-324.85098	1011.9247	752.80518	-323.12421	907.84564	772.16132	-476.85858	1182.9994	1115.3317	-532.00458	906.04987	1370.8591	-360.54547	547.09955	1117.1296	-372.58133	557.565	1226.3564	-599.66534	125.57538	1164.6139	-580.41296	129.27274	1217.9788
480	2.39	-796.58807	969.71094	590.87787	-778.65808	868.20599	591.6947	-316.2301	1014.0016	757.73834	-320.21112	910.81866	771.43262	-473.24173	1183.4739	1116.0431	-540.9024	904.8103	1365.3722	-361.22842	548.0882	1115.7466	-376.85059	558.7641	1225.5999	-600.68195	126.10042	1161.1848	-582.49377	129.87639	1214.8218
